<?xml version="1.0" encoding="UTF-8" standalone="no"?><svg xmlns="http://www.w3.org/2000/svg" xmlns:xlink="http://www.w3.org/1999/xlink" contentScriptType="application/ecmascript" contentStyleType="text/css" height="258px" preserveAspectRatio="none" style="width:335px;height:258px;" version="1.1" viewBox="0 0 335 258" width="335px" zoomAndPan="magnify"><defs><filter height="300%" id="f4spzrt63rg8w" width="300%" x="-1" y="-1"><feGaussianBlur result="blurOut" stdDeviation="2.0"/><feColorMatrix in="blurOut" result="blurOut2" type="matrix" values="0 0 0 0 0 0 0 0 0 0 0 0 0 0 0 0 0 0 .4 0"/><feOffset dx="4.0" dy="4.0" in="blurOut2" result="blurOut3"/><feBlend in="SourceGraphic" in2="blurOut3" mode="normal"/></filter></defs><g><!--MD5=[c54ba4f61d01a424743e5a1fa0f9e38e]
class Dummy--><rect codeLine="1" fill="#FEFECE" filter="url(#f4spzrt63rg8w)" height="86.4141" id="Dummy" style="stroke: #A80036; stroke-width: 1.5;" width="112" x="105.5" y="7"/><ellipse cx="134.9" cy="23" fill="#A9DCDF" rx="11" ry="11" style="stroke: #A80036; stroke-width: 1.0;"/><path d="M136.9781,24.8125 L137.3688,25.7969 L136.9781,25.7969 C136.525,25.7969 136.4156,25.8125 136.2594,25.9219 C136.0094,26.0781 135.8531,26.3594 135.8531,26.6563 C135.8531,26.9219 135.9938,27.1719 136.2125,27.3281 C136.3531,27.4531 136.5563,27.5 136.9781,27.5 L139.3375,27.5 C139.6969,27.5 139.9156,27.4688 140.0563,27.375 C140.3063,27.2344 140.4625,26.9375 140.4625,26.6563 C140.4625,26.375 140.3219,26.125 140.1031,25.9688 C139.9313,25.8281 139.775,25.7969 139.3063,25.7969 L135.9156,17.5938 L132.2438,17.5938 C131.7906,17.5938 131.6656,17.6094 131.5094,17.7031 C131.2594,17.875 131.1031,18.1563 131.1031,18.4375 C131.1031,18.7188 131.2438,18.9688 131.4625,19.1406 C131.6344,19.25 131.8063,19.2813 132.2438,19.2813 L133.3219,19.2813 L130.6813,25.7969 C130.2594,25.7969 130.1031,25.8125 129.9469,25.9219 C129.6969,26.0781 129.5406,26.3594 129.5406,26.6563 C129.5406,27.2188 129.9156,27.5 130.6656,27.5 L132.9313,27.5 C133.2906,27.5 133.5094,27.4688 133.6344,27.375 C133.9,27.2344 134.0406,26.9375 134.0406,26.6563 C134.0406,26.375 133.9156,26.125 133.6969,25.9531 C133.525,25.8281 133.3844,25.7969 132.9313,25.7969 L132.5406,25.7969 L132.9313,24.8125 L136.9781,24.8125 Z M136.275,23.1094 L133.6031,23.1094 L134.9469,19.8438 L136.275,23.1094 Z "/><text fill="#000000" font-family="sans-serif" font-size="12" font-style="italic" lengthAdjust="spacingAndGlyphs" textLength="48" x="152.1" y="27.1543">Dummy</text><line style="stroke: #A80036; stroke-width: 1.5;" x1="106.5" x2="216.5" y1="39" y2="39"/><ellipse cx="116.5" cy="50" fill="none" rx="3" ry="3" style="stroke: #038048; stroke-width: 1.0;"/><text fill="#000000" font-family="sans-serif" font-size="11" lengthAdjust="spacingAndGlyphs" textLength="62" x="125.5" y="53.2104">String data</text><polygon fill="none" points="116.5,57.8047,120.5,61.8047,116.5,65.8047,112.5,61.8047" style="stroke: #B38D22; stroke-width: 1.0;"/><text fill="#000000" font-family="sans-serif" font-size="11" lengthAdjust="spacingAndGlyphs" textLength="55" x="125.5" y="66.0151">String hej</text><line style="stroke: #A80036; stroke-width: 1.5;" x1="106.5" x2="216.5" y1="72.6094" y2="72.6094"/><rect fill="#F24D5C" height="6" style="stroke: #C82930; stroke-width: 1.0;" width="6" x="113.5" y="80.6094"/><text fill="#000000" font-family="sans-serif" font-size="11" lengthAdjust="spacingAndGlyphs" textLength="86" x="125.5" y="86.8198">void methods()</text><!--MD5=[bd6e5d4dd3d7814cbdc3148d3ed1ec4b]
class Flight--><rect codeLine="9" fill="#FEFECE" filter="url(#f4spzrt63rg8w)" height="86.4141" id="Flight" style="stroke: #A80036; stroke-width: 1.5;" width="137" x="7" y="153"/><ellipse cx="55.25" cy="169" fill="#ADD1B2" rx="11" ry="11" style="stroke: #A80036; stroke-width: 1.0;"/><path d="M57.5938,164.6719 C56.6563,164.2344 56.0625,164.0938 55.1875,164.0938 C52.5625,164.0938 50.5625,166.1719 50.5625,168.8906 L50.5625,170.0156 C50.5625,172.5938 52.6719,174.4844 55.5625,174.4844 C56.7813,174.4844 57.9375,174.1875 58.6875,173.6406 C59.2656,173.2344 59.5938,172.7813 59.5938,172.3906 C59.5938,171.9375 59.2031,171.5469 58.7344,171.5469 C58.5156,171.5469 58.3125,171.625 58.125,171.8125 C57.6719,172.2969 57.6719,172.2969 57.4844,172.3906 C57.0625,172.6563 56.375,172.7813 55.6094,172.7813 C53.5625,172.7813 52.2656,171.6875 52.2656,169.9844 L52.2656,168.8906 C52.2656,167.1094 53.5156,165.7969 55.25,165.7969 C55.8281,165.7969 56.4375,165.9531 56.9063,166.2031 C57.3906,166.4844 57.5625,166.7031 57.6563,167.1094 C57.7188,167.5156 57.75,167.6406 57.8906,167.7656 C58.0313,167.9063 58.2656,168.0156 58.4844,168.0156 C58.75,168.0156 59.0156,167.875 59.1875,167.6563 C59.2969,167.5 59.3281,167.3125 59.3281,166.8906 L59.3281,165.4688 C59.3281,165.0313 59.3125,164.9063 59.2188,164.75 C59.0625,164.4844 58.7813,164.3438 58.4844,164.3438 C58.1875,164.3438 57.9844,164.4375 57.7656,164.75 L57.5938,164.6719 Z "/><text fill="#000000" font-family="sans-serif" font-size="12" lengthAdjust="spacingAndGlyphs" textLength="32" x="75.75" y="173.1543">Flight</text><line style="stroke: #A80036; stroke-width: 1.5;" x1="8" x2="143" y1="185" y2="185"/><text fill="#000000" font-family="sans-serif" font-size="11" lengthAdjust="spacingAndGlyphs" textLength="125" x="13" y="199.2104">flightNumber : Integer</text><text fill="#000000" font-family="sans-serif" font-size="11" lengthAdjust="spacingAndGlyphs" textLength="124" x="13" y="212.0151">departureTime : Date</text><text fill="#000000" font-family="sans-serif" font-size="11" lengthAdjust="spacingAndGlyphs" textLength="25" x="13" y="224.8198">int x</text><line style="stroke: #A80036; stroke-width: 1.5;" x1="8" x2="143" y1="231.4141" y2="231.4141"/><!--MD5=[fc589dd86b8469885a143b9dd91725f6]
class Flight2--><rect codeLine="15" fill="#FEFECE" filter="url(#f4spzrt63rg8w)" height="73.6094" id="Flight2" style="stroke: #A80036; stroke-width: 1.5;" width="137" x="179" y="159"/><ellipse cx="223.25" cy="175" fill="#ADD1B2" rx="11" ry="11" style="stroke: #A80036; stroke-width: 1.0;"/><path d="M225.5938,170.6719 C224.6563,170.2344 224.0625,170.0938 223.1875,170.0938 C220.5625,170.0938 218.5625,172.1719 218.5625,174.8906 L218.5625,176.0156 C218.5625,178.5938 220.6719,180.4844 223.5625,180.4844 C224.7813,180.4844 225.9375,180.1875 226.6875,179.6406 C227.2656,179.2344 227.5938,178.7813 227.5938,178.3906 C227.5938,177.9375 227.2031,177.5469 226.7344,177.5469 C226.5156,177.5469 226.3125,177.625 226.125,177.8125 C225.6719,178.2969 225.6719,178.2969 225.4844,178.3906 C225.0625,178.6563 224.375,178.7813 223.6094,178.7813 C221.5625,178.7813 220.2656,177.6875 220.2656,175.9844 L220.2656,174.8906 C220.2656,173.1094 221.5156,171.7969 223.25,171.7969 C223.8281,171.7969 224.4375,171.9531 224.9063,172.2031 C225.3906,172.4844 225.5625,172.7031 225.6563,173.1094 C225.7188,173.5156 225.75,173.6406 225.8906,173.7656 C226.0313,173.9063 226.2656,174.0156 226.4844,174.0156 C226.75,174.0156 227.0156,173.875 227.1875,173.6563 C227.2969,173.5 227.3281,173.3125 227.3281,172.8906 L227.3281,171.4688 C227.3281,171.0313 227.3125,170.9063 227.2188,170.75 C227.0625,170.4844 226.7813,170.3438 226.4844,170.3438 C226.1875,170.3438 225.9844,170.4375 225.7656,170.75 L225.5938,170.6719 Z "/><text fill="#000000" font-family="sans-serif" font-size="12" lengthAdjust="spacingAndGlyphs" textLength="40" x="243.75" y="179.1543">Flight2</text><line style="stroke: #A80036; stroke-width: 1.5;" x1="180" x2="315" y1="191" y2="191"/><text fill="#000000" font-family="sans-serif" font-size="11" lengthAdjust="spacingAndGlyphs" textLength="125" x="185" y="205.2104">flightNumber : Integer</text><text fill="#000000" font-family="sans-serif" font-size="11" lengthAdjust="spacingAndGlyphs" textLength="124" x="185" y="218.0151">departureTime : Date</text><line style="stroke: #A80036; stroke-width: 1.5;" x1="180" x2="315" y1="224.6094" y2="224.6094"/><!--MD5=[3bc598ea46fde7bc2055de732484d3a9]
reverse link Dummy to Flight--><path codeLine="6" d="M125.996,110.449 C117.537,124.612 108.679,139.4443 100.786,152.6606 " fill="none" id="Dummy&lt;-Flight" style="stroke: #A80036; stroke-width: 1.0;"/><polygon fill="none" points="120.129,106.62,136.394,93.038,132.149,113.798,120.129,106.62" style="stroke: #A80036; stroke-width: 1.0;"/><!--MD5=[a255eb1518951dad9d6150ef34dc05c3]
reverse link Dummy to Flight2--><path codeLine="7" d="M196.894,110.265 C206.663,126.622 216.973,143.8849 225.72,158.5304 " fill="none" id="Dummy&lt;-Flight2" style="stroke: #A80036; stroke-width: 1.0;"/><polygon fill="none" points="190.851,113.798,186.606,93.038,202.871,106.62,190.851,113.798" style="stroke: #A80036; stroke-width: 1.0;"/><!--MD5=[2045a2ea7d74ac2c277a34b5881b0b49]
@startuml
Abstract class Dummy {
  +String data
  -void methods()
  #String hej
}
Dummy <|- - Flight
Dummy <|- - Flight2

class Flight{
  {field} flightNumber : Integer
   departureTime : Date
    int x
}

class Flight2{
  {field} flightNumber : Integer
   departureTime : Date
}
@enduml

PlantUML version 1.2020.16beta7(Unknown compile time)
(GPL source distribution)
Java Runtime: Java(TM) SE Runtime Environment
JVM: Java HotSpot(TM) 64-Bit Server VM
Default Encoding: UTF-8
Language: en
Country: US
--></g></svg>